<svg width="699" height="341" viewBox="0 0 699 341" fill="none" xmlns="http://www.w3.org/2000/svg">
<path d="M227 54L231.098 61.6294L235.656 54.2659L227 54ZM353 132L353.395 131.362L233.134 56.9152L232.739 57.5529L232.345 58.1906L352.605 132.638L353 132Z" fill="url(#paint0_linear_1230_801)"/>
<path d="M353 259L357.33 251.5H348.67L353 259ZM353 132H352.25V252.25H353H353.75V132H353Z" fill="url(#paint1_linear_1230_801)"/>
<path d="M353 132L438 217" stroke="url(#paint2_linear_1230_801)" stroke-width="1.5"/>
<rect x="0.5" y="0.5" width="698" height="340" rx="15.5" stroke="url(#paint3_linear_1230_801)"/>
<path d="M263.16 154V139.1H264.96L270.54 147.04H269.62L275.16 139.1H276.96V154H274.98V141.58L275.68 141.8L270.14 149.6H269.98L264.5 141.8L265.12 141.58V154H263.16ZM284.769 154.24C283.729 154.24 282.789 154 281.949 153.52C281.109 153.027 280.443 152.353 279.949 151.5C279.456 150.647 279.209 149.68 279.209 148.6C279.209 147.52 279.449 146.56 279.929 145.72C280.423 144.88 281.089 144.213 281.929 143.72C282.769 143.227 283.716 142.98 284.769 142.98C285.809 142.98 286.749 143.227 287.589 143.72C288.429 144.2 289.089 144.86 289.569 145.7C290.063 146.54 290.309 147.507 290.309 148.6C290.309 149.693 290.056 150.667 289.549 151.52C289.043 152.36 288.369 153.027 287.529 153.52C286.703 154 285.783 154.24 284.769 154.24ZM284.769 152.44C285.436 152.44 286.036 152.273 286.569 151.94C287.116 151.607 287.543 151.147 287.849 150.56C288.169 149.973 288.329 149.32 288.329 148.6C288.329 147.867 288.169 147.22 287.849 146.66C287.543 146.087 287.116 145.633 286.569 145.3C286.036 144.953 285.436 144.78 284.769 144.78C284.089 144.78 283.476 144.953 282.929 145.3C282.396 145.633 281.969 146.087 281.649 146.66C281.329 147.22 281.169 147.867 281.169 148.6C281.169 149.32 281.329 149.973 281.649 150.56C281.969 151.147 282.396 151.607 282.929 151.94C283.476 152.273 284.089 152.44 284.769 152.44ZM292.335 154V143.22H294.155V145.32L293.855 145.14C294.122 144.46 294.549 143.933 295.135 143.56C295.735 143.173 296.435 142.98 297.235 142.98C298.009 142.98 298.695 143.153 299.295 143.5C299.909 143.847 300.389 144.327 300.735 144.94C301.095 145.553 301.275 146.247 301.275 147.02V154H299.395V147.62C299.395 147.02 299.289 146.513 299.075 146.1C298.862 145.687 298.555 145.367 298.155 145.14C297.769 144.9 297.322 144.78 296.815 144.78C296.309 144.78 295.855 144.9 295.455 145.14C295.069 145.367 294.762 145.693 294.535 146.12C294.309 146.533 294.195 147.033 294.195 147.62V154H292.335ZM308.437 154.24C307.424 154.24 306.51 153.993 305.697 153.5C304.897 153.007 304.264 152.333 303.797 151.48C303.33 150.627 303.097 149.673 303.097 148.62C303.097 147.54 303.33 146.58 303.797 145.74C304.264 144.887 304.897 144.213 305.697 143.72C306.51 143.227 307.424 142.98 308.437 142.98C309.33 142.98 310.124 143.173 310.817 143.56C311.51 143.933 312.057 144.44 312.457 145.08L312.157 145.54V138.86H314.037V154H312.217V151.7L312.457 152.02C312.084 152.727 311.537 153.273 310.817 153.66C310.11 154.047 309.317 154.24 308.437 154.24ZM308.597 152.44C309.277 152.44 309.884 152.273 310.417 151.94C310.95 151.607 311.37 151.153 311.677 150.58C311.997 149.993 312.157 149.34 312.157 148.62C312.157 147.887 311.997 147.233 311.677 146.66C311.37 146.073 310.95 145.613 310.417 145.28C309.884 144.947 309.277 144.78 308.597 144.78C307.93 144.78 307.324 144.953 306.777 145.3C306.244 145.633 305.824 146.087 305.517 146.66C305.21 147.22 305.057 147.873 305.057 148.62C305.057 149.34 305.21 149.993 305.517 150.58C305.824 151.153 306.244 151.607 306.777 151.94C307.31 152.273 307.917 152.44 308.597 152.44ZM319.676 154.24C318.969 154.24 318.342 154.113 317.796 153.86C317.262 153.593 316.842 153.233 316.536 152.78C316.229 152.313 316.076 151.78 316.076 151.18C316.076 150.607 316.196 150.093 316.436 149.64C316.689 149.173 317.076 148.78 317.596 148.46C318.129 148.14 318.796 147.913 319.596 147.78L323.596 147.12V148.68L320.016 149.28C319.322 149.4 318.816 149.62 318.496 149.94C318.189 150.26 318.036 150.653 318.036 151.12C318.036 151.56 318.209 151.927 318.556 152.22C318.916 152.513 319.362 152.66 319.896 152.66C320.576 152.66 321.162 152.52 321.656 152.24C322.162 151.947 322.556 151.553 322.836 151.06C323.129 150.567 323.276 150.02 323.276 149.42V146.68C323.276 146.093 323.056 145.62 322.616 145.26C322.189 144.887 321.622 144.7 320.916 144.7C320.302 144.7 319.756 144.86 319.276 145.18C318.809 145.487 318.462 145.9 318.236 146.42L316.616 145.58C316.816 145.087 317.136 144.647 317.576 144.26C318.016 143.86 318.529 143.547 319.116 143.32C319.702 143.093 320.316 142.98 320.956 142.98C321.782 142.98 322.509 143.14 323.136 143.46C323.762 143.767 324.249 144.2 324.596 144.76C324.956 145.307 325.136 145.947 325.136 146.68V154H323.316V151.96L323.656 152.08C323.429 152.507 323.122 152.88 322.736 153.2C322.349 153.52 321.896 153.773 321.376 153.96C320.856 154.147 320.289 154.24 319.676 154.24ZM328.2 158.4C327.96 158.4 327.72 158.38 327.48 158.34C327.24 158.3 327.013 158.233 326.8 158.14V156.48C326.946 156.507 327.126 156.533 327.34 156.56C327.566 156.6 327.786 156.62 328 156.62C328.626 156.62 329.1 156.48 329.42 156.2C329.753 155.933 330.066 155.467 330.36 154.8L331.04 153.18L331 154.8L326.4 143.22H328.42L332 152.42H331.4L334.96 143.22H337.02L332.16 155.28C331.933 155.853 331.64 156.373 331.28 156.84C330.933 157.32 330.506 157.7 330 157.98C329.493 158.26 328.893 158.4 328.2 158.4ZM341.471 149.46V147.76H348.971V149.46H341.471ZM359.973 154.24C359.026 154.24 358.16 154.067 357.373 153.72C356.586 153.36 355.92 152.873 355.373 152.26C354.826 151.647 354.433 150.96 354.193 150.2L355.893 149.5C356.253 150.46 356.786 151.2 357.493 151.72C358.213 152.227 359.053 152.48 360.013 152.48C360.6 152.48 361.113 152.387 361.553 152.2C361.993 152.013 362.333 151.753 362.573 151.42C362.826 151.073 362.953 150.673 362.953 150.22C362.953 149.593 362.773 149.1 362.413 148.74C362.066 148.367 361.553 148.087 360.873 147.9L358.133 147.06C357.053 146.727 356.226 146.2 355.653 145.48C355.08 144.76 354.793 143.933 354.793 143C354.793 142.187 354.986 141.473 355.373 140.86C355.773 140.233 356.32 139.747 357.013 139.4C357.72 139.04 358.52 138.86 359.413 138.86C360.306 138.86 361.113 139.02 361.833 139.34C362.566 139.66 363.186 140.093 363.693 140.64C364.2 141.173 364.573 141.787 364.813 142.48L363.133 143.18C362.813 142.34 362.333 141.707 361.693 141.28C361.053 140.84 360.3 140.62 359.433 140.62C358.9 140.62 358.426 140.713 358.013 140.9C357.613 141.073 357.3 141.333 357.073 141.68C356.86 142.013 356.753 142.413 356.753 142.88C356.753 143.427 356.926 143.913 357.273 144.34C357.62 144.767 358.146 145.093 358.853 145.32L361.353 146.06C362.526 146.42 363.413 146.933 364.013 147.6C364.613 148.267 364.913 149.093 364.913 150.08C364.913 150.893 364.7 151.613 364.273 152.24C363.86 152.867 363.28 153.36 362.533 153.72C361.8 154.067 360.946 154.24 359.973 154.24ZM370.03 154.24C369.323 154.24 368.696 154.113 368.15 153.86C367.616 153.593 367.196 153.233 366.89 152.78C366.583 152.313 366.43 151.78 366.43 151.18C366.43 150.607 366.55 150.093 366.79 149.64C367.043 149.173 367.43 148.78 367.95 148.46C368.483 148.14 369.15 147.913 369.95 147.78L373.95 147.12V148.68L370.37 149.28C369.676 149.4 369.17 149.62 368.85 149.94C368.543 150.26 368.39 150.653 368.39 151.12C368.39 151.56 368.563 151.927 368.91 152.22C369.27 152.513 369.716 152.66 370.25 152.66C370.93 152.66 371.516 152.52 372.01 152.24C372.516 151.947 372.91 151.553 373.19 151.06C373.483 150.567 373.63 150.02 373.63 149.42V146.68C373.63 146.093 373.41 145.62 372.97 145.26C372.543 144.887 371.976 144.7 371.27 144.7C370.656 144.7 370.11 144.86 369.63 145.18C369.163 145.487 368.816 145.9 368.59 146.42L366.97 145.58C367.17 145.087 367.49 144.647 367.93 144.26C368.37 143.86 368.883 143.547 369.47 143.32C370.056 143.093 370.67 142.98 371.31 142.98C372.136 142.98 372.863 143.14 373.49 143.46C374.116 143.767 374.603 144.2 374.95 144.76C375.31 145.307 375.49 145.947 375.49 146.68V154H373.67V151.96L374.01 152.08C373.783 152.507 373.476 152.88 373.09 153.2C372.703 153.52 372.25 153.773 371.73 153.96C371.21 154.147 370.643 154.24 370.03 154.24ZM382.158 154.12C381.105 154.12 380.292 153.82 379.718 153.22C379.158 152.62 378.878 151.773 378.878 150.68V145H376.918V143.22H377.318C377.798 143.22 378.178 143.073 378.458 142.78C378.738 142.487 378.878 142.1 378.878 141.62V140.74H380.738V143.22H383.158V145H380.738V150.62C380.738 150.98 380.792 151.293 380.898 151.56C381.018 151.827 381.212 152.04 381.478 152.2C381.745 152.347 382.098 152.42 382.538 152.42C382.632 152.42 382.745 152.413 382.878 152.4C383.025 152.387 383.158 152.373 383.278 152.36V154C383.105 154.04 382.912 154.067 382.698 154.08C382.485 154.107 382.305 154.12 382.158 154.12ZM389.128 154.24C388.355 154.24 387.655 154.06 387.028 153.7C386.415 153.34 385.935 152.84 385.588 152.2C385.255 151.547 385.088 150.8 385.088 149.96V143.22H386.948V149.76C386.948 150.293 387.055 150.76 387.268 151.16C387.495 151.56 387.801 151.873 388.188 152.1C388.588 152.327 389.041 152.44 389.548 152.44C390.055 152.44 390.501 152.327 390.888 152.1C391.288 151.873 391.595 151.547 391.808 151.12C392.035 150.693 392.148 150.187 392.148 149.6V143.22H394.028V154H392.208V151.9L392.508 152.08C392.255 152.76 391.821 153.293 391.208 153.68C390.608 154.053 389.915 154.24 389.128 154.24ZM396.51 154V143.22H398.33V145.2L398.13 144.92C398.383 144.307 398.77 143.853 399.29 143.56C399.81 143.253 400.443 143.1 401.19 143.1H401.85V144.86H400.91C400.15 144.86 399.536 145.1 399.07 145.58C398.603 146.047 398.37 146.713 398.37 147.58V154H396.51ZM408.002 154.24C406.988 154.24 406.075 153.993 405.262 153.5C404.462 153.007 403.828 152.333 403.362 151.48C402.895 150.627 402.662 149.673 402.662 148.62C402.662 147.54 402.895 146.58 403.362 145.74C403.828 144.887 404.462 144.213 405.262 143.72C406.075 143.227 406.988 142.98 408.002 142.98C408.895 142.98 409.688 143.173 410.382 143.56C411.075 143.933 411.622 144.44 412.022 145.08L411.722 145.54V138.86H413.602V154H411.782V151.7L412.022 152.02C411.648 152.727 411.102 153.273 410.382 153.66C409.675 154.047 408.882 154.24 408.002 154.24ZM408.162 152.44C408.842 152.44 409.448 152.273 409.982 151.94C410.515 151.607 410.935 151.153 411.242 150.58C411.562 149.993 411.722 149.34 411.722 148.62C411.722 147.887 411.562 147.233 411.242 146.66C410.935 146.073 410.515 145.613 409.982 145.28C409.448 144.947 408.842 144.78 408.162 144.78C407.495 144.78 406.888 144.953 406.342 145.3C405.808 145.633 405.388 146.087 405.082 146.66C404.775 147.22 404.622 147.873 404.622 148.62C404.622 149.34 404.775 149.993 405.082 150.58C405.388 151.153 405.808 151.607 406.342 151.94C406.875 152.273 407.482 152.44 408.162 152.44ZM419.241 154.24C418.534 154.24 417.907 154.113 417.361 153.86C416.827 153.593 416.407 153.233 416.101 152.78C415.794 152.313 415.641 151.78 415.641 151.18C415.641 150.607 415.761 150.093 416.001 149.64C416.254 149.173 416.641 148.78 417.161 148.46C417.694 148.14 418.361 147.913 419.161 147.78L423.161 147.12V148.68L419.581 149.28C418.887 149.4 418.381 149.62 418.061 149.94C417.754 150.26 417.601 150.653 417.601 151.12C417.601 151.56 417.774 151.927 418.121 152.22C418.481 152.513 418.927 152.66 419.461 152.66C420.141 152.66 420.727 152.52 421.221 152.24C421.727 151.947 422.121 151.553 422.401 151.06C422.694 150.567 422.841 150.02 422.841 149.42V146.68C422.841 146.093 422.621 145.62 422.181 145.26C421.754 144.887 421.187 144.7 420.481 144.7C419.867 144.7 419.321 144.86 418.841 145.18C418.374 145.487 418.027 145.9 417.801 146.42L416.181 145.58C416.381 145.087 416.701 144.647 417.141 144.26C417.581 143.86 418.094 143.547 418.681 143.32C419.267 143.093 419.881 142.98 420.521 142.98C421.347 142.98 422.074 143.14 422.701 143.46C423.327 143.767 423.814 144.2 424.161 144.76C424.521 145.307 424.701 145.947 424.701 146.68V154H422.881V151.96L423.221 152.08C422.994 152.507 422.687 152.88 422.301 153.2C421.914 153.52 421.461 153.773 420.941 153.96C420.421 154.147 419.854 154.24 419.241 154.24ZM427.765 158.4C427.525 158.4 427.285 158.38 427.045 158.34C426.805 158.3 426.578 158.233 426.365 158.14V156.48C426.511 156.507 426.691 156.533 426.905 156.56C427.131 156.6 427.351 156.62 427.565 156.62C428.191 156.62 428.665 156.48 428.985 156.2C429.318 155.933 429.631 155.467 429.925 154.8L430.605 153.18L430.565 154.8L425.965 143.22H427.985L431.565 152.42H430.965L434.525 143.22H436.585L431.725 155.28C431.498 155.853 431.205 156.373 430.845 156.84C430.498 157.32 430.071 157.7 429.565 157.98C429.058 158.26 428.458 158.4 427.765 158.4Z" fill="#606060"/>
<path d="M142.112 130V102.324H135.776V97.22H148.096V130H142.112ZM166.942 130.528C164.331 130.528 162.043 129.824 160.078 128.416C158.113 127.008 156.573 125.028 155.458 122.476C154.373 119.924 153.83 116.961 153.83 113.588C153.83 110.185 154.373 107.223 155.458 104.7C156.543 102.177 158.069 100.212 160.034 98.804C161.999 97.396 164.287 96.692 166.898 96.692C169.567 96.692 171.87 97.396 173.806 98.804C175.771 100.212 177.311 102.192 178.426 104.744C179.541 107.267 180.098 110.215 180.098 113.588C180.098 116.961 179.541 119.924 178.426 122.476C177.341 124.999 175.815 126.979 173.85 128.416C171.885 129.824 169.582 130.528 166.942 130.528ZM166.986 125.072C168.482 125.072 169.758 124.617 170.814 123.708C171.87 122.769 172.677 121.449 173.234 119.748C173.821 118.017 174.114 115.964 174.114 113.588C174.114 111.212 173.821 109.173 173.234 107.472C172.677 105.741 171.855 104.421 170.77 103.512C169.714 102.603 168.423 102.148 166.898 102.148C165.431 102.148 164.17 102.603 163.114 103.512C162.058 104.421 161.237 105.741 160.65 107.472C160.093 109.173 159.814 111.212 159.814 113.588C159.814 115.935 160.093 117.973 160.65 119.704C161.237 121.405 162.058 122.725 163.114 123.664C164.199 124.603 165.49 125.072 166.986 125.072ZM187.05 130V123.84H192.858V130H187.05ZM187.05 112.224V106.064H192.858V112.224H187.05ZM212.963 130.528C210.353 130.528 208.065 129.824 206.099 128.416C204.134 127.008 202.594 125.028 201.479 122.476C200.394 119.924 199.851 116.961 199.851 113.588C199.851 110.185 200.394 107.223 201.479 104.7C202.565 102.177 204.09 100.212 206.055 98.804C208.021 97.396 210.309 96.692 212.919 96.692C215.589 96.692 217.891 97.396 219.827 98.804C221.793 100.212 223.333 102.192 224.447 104.744C225.562 107.267 226.119 110.215 226.119 113.588C226.119 116.961 225.562 119.924 224.447 122.476C223.362 124.999 221.837 126.979 219.871 128.416C217.906 129.824 215.603 130.528 212.963 130.528ZM213.007 125.072C214.503 125.072 215.779 124.617 216.835 123.708C217.891 122.769 218.698 121.449 219.255 119.748C219.842 118.017 220.135 115.964 220.135 113.588C220.135 111.212 219.842 109.173 219.255 107.472C218.698 105.741 217.877 104.421 216.791 103.512C215.735 102.603 214.445 102.148 212.919 102.148C211.453 102.148 210.191 102.603 209.135 103.512C208.079 104.421 207.258 105.741 206.671 107.472C206.114 109.173 205.835 111.212 205.835 113.588C205.835 115.935 206.114 117.973 206.671 119.704C207.258 121.405 208.079 122.725 209.135 123.664C210.221 124.603 211.511 125.072 213.007 125.072ZM243.236 130.528C240.625 130.528 238.337 129.824 236.372 128.416C234.406 127.008 232.866 125.028 231.752 122.476C230.666 119.924 230.124 116.961 230.124 113.588C230.124 110.185 230.666 107.223 231.752 104.7C232.837 102.177 234.362 100.212 236.328 98.804C238.293 97.396 240.581 96.692 243.192 96.692C245.861 96.692 248.164 97.396 250.1 98.804C252.065 100.212 253.605 102.192 254.72 104.744C255.834 107.267 256.392 110.215 256.392 113.588C256.392 116.961 255.834 119.924 254.72 122.476C253.634 124.999 252.109 126.979 250.144 128.416C248.178 129.824 245.876 130.528 243.236 130.528ZM243.28 125.072C244.776 125.072 246.052 124.617 247.108 123.708C248.164 122.769 248.97 121.449 249.528 119.748C250.114 118.017 250.408 115.964 250.408 113.588C250.408 111.212 250.114 109.173 249.528 107.472C248.97 105.741 248.149 104.421 247.064 103.512C246.008 102.603 244.717 102.148 243.192 102.148C241.725 102.148 240.464 102.603 239.408 103.512C238.352 104.421 237.53 105.741 236.944 107.472C236.386 109.173 236.108 111.212 236.108 113.588C236.108 115.935 236.386 117.973 236.944 119.704C237.53 121.405 238.352 122.725 239.408 123.664C240.493 124.603 241.784 125.072 243.28 125.072ZM258.416 130L269.724 97.22H277.468L288.776 130H282.264L279.932 122.96H267.26L264.884 130H258.416ZM268.976 117.68H278.216L272.76 101.356H274.432L268.976 117.68ZM291.544 130V97.22H297.264L309.54 113.896H306.812L318.824 97.22H324.544V130H318.516V104.04L320.848 104.612L308.396 121.2H307.692L295.548 104.612L297.528 104.04V130H291.544ZM337.582 120.584V115.524H356.282V120.584H337.582ZM381.729 130.528C379.118 130.528 376.83 129.824 374.865 128.416C372.9 127.008 371.36 125.028 370.245 122.476C369.16 119.924 368.617 116.961 368.617 113.588C368.617 110.185 369.16 107.223 370.245 104.7C371.33 102.177 372.856 100.212 374.821 98.804C376.786 97.396 379.074 96.692 381.685 96.692C384.354 96.692 386.657 97.396 388.593 98.804C390.558 100.212 392.098 102.192 393.213 104.744C394.328 107.267 394.885 110.215 394.885 113.588C394.885 116.961 394.328 119.924 393.213 122.476C392.128 124.999 390.602 126.979 388.637 128.416C386.672 129.824 384.369 130.528 381.729 130.528ZM381.773 125.072C383.269 125.072 384.545 124.617 385.601 123.708C386.657 122.769 387.464 121.449 388.021 119.748C388.608 118.017 388.901 115.964 388.901 113.588C388.901 111.212 388.608 109.173 388.021 107.472C387.464 105.741 386.642 104.421 385.557 103.512C384.501 102.603 383.21 102.148 381.685 102.148C380.218 102.148 378.957 102.603 377.901 103.512C376.845 104.421 376.024 105.741 375.437 107.472C374.88 109.173 374.601 111.212 374.601 113.588C374.601 115.935 374.88 117.973 375.437 119.704C376.024 121.405 376.845 122.725 377.901 123.664C378.986 124.603 380.277 125.072 381.773 125.072ZM409.713 130.528C407.484 130.528 405.504 130.059 403.773 129.12C402.072 128.152 400.737 126.861 399.769 125.248C398.801 123.605 398.317 121.743 398.317 119.66C398.317 118.604 398.42 117.548 398.625 116.492C398.86 115.436 399.271 114.307 399.857 113.104C400.473 111.901 401.353 110.567 402.497 109.1L411.649 97.22H418.777L407.645 111.52L406.677 110.464C407.088 110.141 407.513 109.892 407.953 109.716C408.393 109.511 408.833 109.364 409.273 109.276C409.743 109.188 410.227 109.144 410.725 109.144C412.72 109.144 414.495 109.599 416.049 110.508C417.604 111.417 418.821 112.664 419.701 114.248C420.611 115.803 421.065 117.563 421.065 119.528C421.065 121.64 420.581 123.532 419.613 125.204C418.645 126.847 417.296 128.152 415.565 129.12C413.864 130.059 411.913 130.528 409.713 130.528ZM409.713 125.116C410.711 125.116 411.605 124.896 412.397 124.456C413.219 123.987 413.864 123.327 414.333 122.476C414.832 121.625 415.081 120.672 415.081 119.616C415.081 118.501 414.832 117.548 414.333 116.756C413.864 115.935 413.233 115.289 412.441 114.82C411.649 114.351 410.74 114.116 409.713 114.116C408.716 114.116 407.807 114.351 406.985 114.82C406.164 115.289 405.504 115.935 405.005 116.756C404.536 117.548 404.301 118.501 404.301 119.616C404.301 120.672 404.536 121.625 405.005 122.476C405.504 123.327 406.164 123.987 406.985 124.456C407.807 124.896 408.716 125.116 409.713 125.116ZM427.426 130V123.84H433.234V130H427.426ZM427.426 112.224V106.064H433.234V112.224H427.426ZM453.339 130.528C450.728 130.528 448.44 129.824 446.475 128.416C444.51 127.008 442.97 125.028 441.855 122.476C440.77 119.924 440.227 116.961 440.227 113.588C440.227 110.185 440.77 107.223 441.855 104.7C442.94 102.177 444.466 100.212 446.431 98.804C448.396 97.396 450.684 96.692 453.295 96.692C455.964 96.692 458.267 97.396 460.203 98.804C462.168 100.212 463.708 102.192 464.823 104.744C465.938 107.267 466.495 110.215 466.495 113.588C466.495 116.961 465.938 119.924 464.823 122.476C463.738 124.999 462.212 126.979 460.247 128.416C458.282 129.824 455.979 130.528 453.339 130.528ZM453.383 125.072C454.879 125.072 456.155 124.617 457.211 123.708C458.267 122.769 459.074 121.449 459.631 119.748C460.218 118.017 460.511 115.964 460.511 113.588C460.511 111.212 460.218 109.173 459.631 107.472C459.074 105.741 458.252 104.421 457.167 103.512C456.111 102.603 454.82 102.148 453.295 102.148C451.828 102.148 450.567 102.603 449.511 103.512C448.455 104.421 447.634 105.741 447.047 107.472C446.49 109.173 446.211 111.212 446.211 113.588C446.211 115.935 446.49 117.973 447.047 119.704C447.634 121.405 448.455 122.725 449.511 123.664C450.596 124.603 451.887 125.072 453.383 125.072ZM483.611 130.528C481.001 130.528 478.713 129.824 476.747 128.416C474.782 127.008 473.242 125.028 472.127 122.476C471.042 119.924 470.499 116.961 470.499 113.588C470.499 110.185 471.042 107.223 472.127 104.7C473.213 102.177 474.738 100.212 476.703 98.804C478.669 97.396 480.957 96.692 483.567 96.692C486.237 96.692 488.539 97.396 490.475 98.804C492.441 100.212 493.981 102.192 495.095 104.744C496.21 107.267 496.767 110.215 496.767 113.588C496.767 116.961 496.21 119.924 495.095 122.476C494.01 124.999 492.485 126.979 490.519 128.416C488.554 129.824 486.251 130.528 483.611 130.528ZM483.655 125.072C485.151 125.072 486.427 124.617 487.483 123.708C488.539 122.769 489.346 121.449 489.903 119.748C490.49 118.017 490.783 115.964 490.783 113.588C490.783 111.212 490.49 109.173 489.903 107.472C489.346 105.741 488.525 104.421 487.439 103.512C486.383 102.603 485.093 102.148 483.567 102.148C482.101 102.148 480.839 102.603 479.783 103.512C478.727 104.421 477.906 105.741 477.319 107.472C476.762 109.173 476.483 111.212 476.483 113.588C476.483 115.935 476.762 117.973 477.319 119.704C477.906 121.405 478.727 122.725 479.783 123.664C480.869 124.603 482.159 125.072 483.655 125.072ZM501.476 130V97.22H513.708C515.937 97.22 517.902 97.6307 519.604 98.452C521.334 99.244 522.684 100.417 523.652 101.972C524.62 103.497 525.104 105.36 525.104 107.56C525.104 109.731 524.605 111.593 523.608 113.148C522.64 114.673 521.305 115.847 519.604 116.668C517.902 117.489 515.937 117.9 513.708 117.9H507.46V130H501.476ZM507.46 112.62H513.796C514.881 112.62 515.82 112.415 516.612 112.004C517.404 111.564 518.02 110.963 518.46 110.2C518.9 109.437 519.12 108.557 519.12 107.56C519.12 106.533 518.9 105.653 518.46 104.92C518.02 104.157 517.404 103.571 516.612 103.16C515.82 102.72 514.881 102.5 513.796 102.5H507.46V112.62ZM529.127 130V97.22H534.847L547.123 113.896H544.395L556.407 97.22H562.127V130H556.099V104.04L558.431 104.612L545.979 121.2H545.275L533.131 104.612L535.111 104.04V130H529.127Z" fill="url(#paint4_linear_1230_801)"/>
<rect x="306.5" y="9.5" width="87" height="17" rx="8.5" fill="#F8F8F8" stroke="#BABABA"/>
<circle cx="316" cy="18" r="3" fill="#D9D9D9"/>
<defs>
<linearGradient id="paint0_linear_1230_801" x1="227.263" y1="53.5749" x2="306.5" y2="104.5" gradientUnits="userSpaceOnUse">
<stop stop-color="#E41A24"/>
<stop offset="1" stop-color="#7E0E14" stop-opacity="0"/>
</linearGradient>
<linearGradient id="paint1_linear_1230_801" x1="352.5" y1="259" x2="353.67" y2="178.283" gradientUnits="userSpaceOnUse">
<stop stop-color="#E41A24"/>
<stop offset="1" stop-color="#7E0E14" stop-opacity="0"/>
</linearGradient>
<linearGradient id="paint2_linear_1230_801" x1="437.646" y1="217.354" x2="384.363" y2="162.588" gradientUnits="userSpaceOnUse">
<stop stop-color="#E6E6E6"/>
<stop offset="1" stop-color="#D5D5D5" stop-opacity="0"/>
</linearGradient>
<linearGradient id="paint3_linear_1230_801" x1="349.5" y1="2.81886e-08" x2="349.731" y2="207.182" gradientUnits="userSpaceOnUse">
<stop stop-color="#BABABA"/>
<stop offset="1" stop-color="#545454" stop-opacity="0"/>
</linearGradient>
<linearGradient id="paint4_linear_1230_801" x1="350" y1="90" x2="350" y2="134" gradientUnits="userSpaceOnUse">
<stop stop-color="#111111"/>
<stop offset="1" stop-color="#B2B2B2"/>
</linearGradient>
</defs>
</svg>
